<svg width="33" height="31" viewBox="0 0 33 31" fill="none" xmlns="http://www.w3.org/2000/svg">
<path d="M16.5357 1.03677L16.5366 1.03773L31.0757 15.944C31.0758 15.9441 31.0759 15.9442 31.0759 15.9443C31.5799 16.4615 31.5798 17.3099 31.0778 17.827L31.0763 17.8286C30.8407 18.0723 30.5247 18.2044 30.1963 18.2044H28.6644H27.6644V19.2044V29.8411C27.6644 29.9542 27.5833 30 27.5349 30H19.1491V22.8876V21.8876H18.1491H14.1957H13.1957V22.8876V30H5.37467C5.32622 30 5.24513 29.9542 5.24513 29.8411V19.2044V18.2044H4.24513H2.71318C2.04349 18.2044 1.4541 17.6371 1.4541 16.8866C1.4541 16.5296 1.5937 16.1904 1.83383 15.944L16.3729 1.03773L16.3738 1.03677C16.3869 1.02338 16.4009 1.01417 16.4145 1.00838C16.4281 1.00261 16.4417 1 16.4548 1C16.4679 1 16.4814 1.00261 16.495 1.00838C16.5086 1.01417 16.5227 1.02338 16.5357 1.03677ZM30.1963 19.2044C30.7964 19.2044 31.3718 18.9618 31.7953 18.5236L27.5349 31C28.1596 31 28.6644 30.4821 28.6644 29.8411V20.2044V19.2044H29.6644H30.1963Z" stroke="#883399" stroke-width="2"/>
</svg>
