<svg width="35" height="34" viewBox="0 0 35 34" fill="none" xmlns="http://www.w3.org/2000/svg">
<path d="M0.531727 5.94484C0.22353 6.25415 0.0395771 6.66583 0.0147637 7.10178C-0.0119758 7.54744 -0.521808 18.1043 7.66403 26.2939M0.531727 5.94484L1.18273 6.70392L1.21851 6.67323M0.531727 5.94484L1.24012 6.65066C1.23275 6.65805 1.22555 6.66557 1.21851 6.67323M0.531727 5.94484L4.40003 2.62731C4.75228 2.32544 5.20832 2.17276 5.67132 2.20172C6.13432 2.23068 6.56779 2.43899 6.87967 2.7824L30.4987 27.8126M1.21851 6.67323C1.09622 6.80617 1.02345 6.97762 1.01315 7.15861L1.01297 7.16167C0.990689 7.53301 0.500087 17.7119 8.37105 25.5867M1.21851 6.67323L5.05077 3.38662C5.05086 3.38654 5.05094 3.38647 5.05103 3.38639C5.20564 3.25401 5.40575 3.18707 5.6089 3.19977C5.81216 3.21248 6.00247 3.30394 6.13939 3.45471L6.13985 3.45521L12.7267 10.6981L12.7271 10.6986C12.864 10.8489 12.937 11.0466 12.9307 11.2498C12.9245 11.453 12.8394 11.6458 12.6935 11.7873L12.6923 11.7885L8.30877 16.0562L7.92488 16.4299L8.0234 16.9566C8.24432 18.1376 8.96645 20.4019 11.2581 22.6955L11.2593 22.6967C13.5511 24.9829 15.8091 25.7039 16.9939 25.9302L17.523 26.0312L17.8984 25.6451L22.1643 21.258L22.1643 21.2579C22.3062 21.112 22.4992 21.0269 22.7025 21.0206C22.9058 21.0143 23.1036 21.0873 23.2541 21.224C23.2542 21.2241 23.2543 21.2241 23.2544 21.2242L30.4987 27.8126M8.37105 25.5867L7.66403 26.2939M8.37105 25.5867C8.37113 25.5867 8.37121 25.5868 8.37129 25.5869M8.37105 25.5867C8.37113 25.5867 8.37121 25.5868 8.37129 25.5869M7.66403 26.2939C14.8052 33.4334 23.7505 33.9557 26.2141 33.9557C26.5742 33.9557 26.7952 33.945 26.854 33.9414C27.2899 33.917 27.7014 33.7323 28.0092 33.4227M7.66403 26.2939L8.37129 25.5869M8.37129 25.5869L27.2789 32.7381M27.2789 32.7381L27.2498 32.7721L28.0092 33.4227M27.2789 32.7381L30.5655 28.9019L30.566 28.9013C30.6986 28.7468 30.7658 28.5466 30.7532 28.3433C30.7407 28.1401 30.6494 27.9497 30.4987 27.8127M27.2789 32.7381L30.4987 27.8127M27.2789 32.7381C27.2861 32.7314 27.2931 32.7246 27.3001 32.7176L28.0092 33.4227M27.2789 32.7381L28.0092 33.4227M30.4987 27.8127L30.4987 27.8126M30.4987 27.8127L30.4987 27.8126" stroke="#883399" stroke-width="2"/>
<path d="M33.4545 17.0421C33.4545 7.89709 26.5504 1 17.393 1M26.324 17.0439C26.324 11.2948 23.1598 8.13062 17.4109 8.13062" stroke="#883399" stroke-width="2"/>
</svg>
