<svg width="405" height="196" viewBox="0 0 405 196" fill="none" xmlns="http://www.w3.org/2000/svg">
<path d="M26.0301 34.1968V35.1968H27.0301H59.4636V53.3991H27.0301H26.0301V54.3991V78.8203H1V1.41406H64.1669V19.6163H27.0301V20.5602H26.0301V20.6163V21.6163V34.1968Z" stroke="#883399" stroke-width="2"/>
<path d="M74.7791 1.41406H99.8092V78.8203H74.7791V1.41406Z" stroke="#883399" stroke-width="2"/>
<path d="M167.543 36.4976V1.41406H191.893V78.8203H171.144L140.957 43.0914L139.193 41.0037V43.7367V78.8203H114.843V1.41406H135.592L165.779 37.143L167.543 39.2306V36.4976Z" stroke="#883399" stroke-width="2"/>
<path d="M206.985 1.41406H232.015V78.8203H206.985V1.41406Z" stroke="#883399" stroke-width="2"/>
<path d="M263.5 20.1219H241.04V1.3584H313.047V20.1219H290.587H289.587V21.1219V78.7646H264.557V21.1219V20.1219H263.557H263.5Z" stroke="#883399" stroke-width="2"/>
<path d="M372.554 65.5939L372.305 64.9593H371.623H341.136H340.452L340.204 65.5972L335.068 78.8203H309.804L343.998 1.41406H369.271L403.465 78.8203H377.745L372.554 65.5939ZM364.2 47.6549H365.661L365.132 46.2926L357.368 26.3148L356.44 23.9249L355.505 26.3125L347.685 46.2903L347.151 47.6549H348.616H364.2Z" stroke="#883399" stroke-width="2"/>
<path d="M27.0301 173.285H26.0301V174.285V192.813H1V115.407H38.5901C49.5909 115.407 58.4834 118.255 64.6052 123.256C70.7052 128.238 74.1403 135.424 74.1403 144.318C74.1403 153.212 70.7049 160.412 64.6041 165.409C58.4821 170.423 49.5898 173.285 38.5901 173.285H27.0301ZM27.0301 134.002H26.0301V135.002V153.633V154.633H27.0301H36.8901C40.7456 154.633 43.766 153.716 45.8322 151.893C47.9183 150.052 48.8835 147.42 48.8835 144.318C48.8835 141.216 47.9183 138.583 45.8322 136.743C43.766 134.919 40.7456 134.002 36.8901 134.002H27.0301Z" stroke="#883399" stroke-width="2"/>
<path d="M119.147 173.271L118.849 172.834H118.321H111.011H110.011V173.834V192.812H84.9807V115.406H122.571C133.572 115.406 142.464 118.254 148.585 123.261C154.685 128.25 158.121 135.45 158.121 144.372C158.121 155.444 152.835 163.741 143.539 168.453L142.52 168.969L143.166 169.911L158.922 192.868H132.506L119.147 173.271ZM111.011 134.001H110.011V135.001V153.632V154.632H111.011H120.871C124.726 154.632 127.747 153.715 129.813 151.891C131.899 150.051 132.864 147.418 132.864 144.316C132.864 141.214 131.899 138.582 129.813 136.741C127.747 134.918 124.726 134.001 120.871 134.001H111.011Z" stroke="#883399" stroke-width="2"/>
<path d="M167.091 154.082C167.091 130.641 185.711 113.555 211.368 113.555C237.024 113.555 255.644 130.641 255.644 154.082C255.644 177.523 237.024 194.609 211.368 194.609C185.711 194.609 167.091 177.523 167.091 154.082ZM230.331 154.082C230.331 147.687 228.243 142.463 224.793 138.831C221.343 135.199 216.586 133.217 211.368 133.217C206.15 133.217 201.379 135.198 197.915 138.829C194.451 142.461 192.348 147.685 192.348 154.082C192.348 160.477 194.435 165.701 197.885 169.333C201.335 172.965 206.093 174.948 211.311 174.948C216.529 174.948 221.3 172.966 224.763 169.335C228.228 165.703 230.331 160.479 230.331 154.082Z" stroke="#883399" stroke-width="2"/>
<path d="M303.812 173.88V173.936H304.812C310.672 173.936 315.728 172.208 319.326 168.801C322.933 165.387 324.965 160.391 324.965 154.081C324.965 147.8 322.948 142.804 319.349 139.383C315.758 135.969 310.701 134.225 304.812 134.225H293.479H292.479V135.225V172.88V173.88H293.479H303.812ZM267.449 115.406H305.945C319.166 115.406 330.235 119.128 337.983 125.791C345.714 132.44 350.222 142.088 350.222 154.137C350.222 166.187 345.728 175.834 338.004 182.483C330.264 189.146 319.195 192.868 305.945 192.868H267.449V115.406Z" stroke="#883399" stroke-width="2"/>
</svg>
