<svg width="107" height="99" viewBox="0 0 107 99" fill="none" xmlns="http://www.w3.org/2000/svg">
<path d="M13.977 51.8044L6.03256 57.9808L1.38205 51.67L15.206 40.8835L15.5908 40.5832V40.0951V25.7501H23.3181V32.5464V34.5882L24.9312 33.3364L53.4994 11.1663L105.611 51.667L100.968 57.869L93.0157 51.799L91.409 50.5725V52.5939V98.0001H15.5908V52.5939V50.5498L13.977 51.8044ZM23.3181 89.1001V90.1001H24.3181H48.6363H49.6363V89.1001V70.3001H57.3635V89.1001V90.1001H58.3635H82.6817H83.6817V89.1001V45.0451V44.5554L83.2948 44.2551L54.113 21.6089L53.4999 21.1331L52.8868 21.6089L23.705 44.2551L23.3181 44.5554V45.0451V89.1001ZM42.7424 1.00012C42.5319 4.43276 41.2216 7.35708 38.8036 9.81801C36.1548 12.5139 32.9669 13.8501 29.1817 13.8501C27.5468 13.8501 26.1311 14.4234 25.0019 15.5687L24.9994 15.5712C24.109 16.4806 23.5744 17.5682 23.3905 18.8001H15.621C15.8315 15.3675 17.1418 12.4432 19.5598 9.98223C22.2086 7.28635 25.3966 5.95012 29.1817 5.95012C30.8177 5.95012 32.2339 5.37435 33.3628 4.22538C34.2541 3.31823 34.7889 2.23169 34.9729 1.00012H42.7424Z" stroke="#883399" stroke-width="2"/>
</svg>
