<svg width="113" height="83" viewBox="0 0 113 83" fill="none" xmlns="http://www.w3.org/2000/svg">
<path d="M7.00856 37.2622L7.0086 37.2621C11.0236 32.2871 16.0324 29.1064 22.0585 27.6891L22.6363 27.5532L22.7937 26.9808C24.8774 19.4049 28.9944 13.1887 35.1627 8.30595C41.3157 3.43535 48.4147 1 56.5 1C66.4241 1 74.702 4.46123 81.4008 11.3913C88.1099 18.3389 91.4545 26.6282 91.4545 36.3125V37.2106L92.3474 37.3067C98.5256 37.9723 103.299 40.5331 106.756 44.9676C110.269 49.4769 112 54.322 112 59.5266C112 65.7521 109.854 71.0331 105.547 75.4262C101.239 79.8168 96.0383 82 89.8864 82H28.25C20.6377 82 14.2174 79.3376 8.92878 73.9964C3.6398 68.6548 1 62.1658 1 54.4688C1 47.9487 3.00156 42.2266 7.00856 37.2622ZM48.9388 36.5111C53.1008 41.3109 55.2834 46.9491 55.4847 53.4688H47.2046C46.9829 48.6175 45.1338 44.4213 41.6731 40.9261C37.9764 37.1926 33.4835 35.3125 28.25 35.3125C23.0165 35.3125 18.5236 37.1926 14.8269 40.9261C11.1306 44.6592 9.27273 49.1922 9.27273 54.4688C9.27273 59.7453 11.1306 64.2783 14.8269 68.0114C18.5236 71.7449 23.0165 73.625 28.25 73.625H89.8864C93.743 73.625 97.0396 72.2686 99.714 69.5677C102.388 66.8671 103.727 63.5424 103.727 59.6562C103.727 55.7701 102.388 52.4454 99.714 49.7448C97.0396 47.0439 93.743 45.6875 89.8864 45.6875H83.1818V36.3125C83.1818 28.8755 80.5765 22.5043 75.3833 17.2558L75.3828 17.2553C70.1857 12.01 63.8726 9.375 56.5 9.375C50.9098 9.375 45.9112 10.9242 41.5389 14.0315L41.5384 14.0318C37.1951 17.1222 33.9936 21.0953 31.9513 25.938L31.4601 27.1028L32.7067 27.3127C39.1495 28.3972 44.5501 31.4533 48.9388 36.5111Z" stroke="#883399" stroke-width="2"/>
</svg>
