<svg width="103" height="99" viewBox="0 0 103 99" fill="none" xmlns="http://www.w3.org/2000/svg">
<path d="M14.456 97.5945L4.20288 87.4661L41.8471 50.2802L42.5672 49.5688L41.8471 48.8574L32.395 39.5203L31.6922 38.8261L30.9894 39.5203L27.8002 42.6708L21.4139 36.3622L19.7111 34.6802V37.0736V47.9152L16.8191 50.772L1.42285 35.5632L4.30256 32.7186H15.29H17.7253L15.9928 31.0071L9.76293 24.8531L28.7809 6.06661C30.5502 4.31884 32.4292 3.07384 34.4158 2.30596C36.4353 1.52531 38.491 1.13743 40.5883 1.13743C42.6856 1.13743 44.7412 1.52531 46.7608 2.30596C48.4736 2.96801 50.1064 3.98473 51.6579 5.37256L39.6075 17.2762L38.8873 17.9876L39.6075 18.6991L45.8374 24.8531L42.6656 27.9863L41.9454 28.6978L42.6656 29.4092L52.1176 38.7462L52.8204 39.4404L53.5232 38.7462L66.0333 26.3884L66.4914 25.9358L66.269 25.3315C65.9159 24.3725 65.6289 23.3669 65.4086 22.3141L65.4079 22.3109C65.1886 21.2793 65.0795 20.2505 65.0795 19.2234C65.0795 14.0829 66.8548 9.78628 70.4146 6.26983C73.9711 2.75667 78.3246 1.00012 83.5397 1.00012C84.8637 1.00012 86.113 1.13088 87.2899 1.38886C88.0215 1.54972 88.765 1.76098 89.5205 2.02352L76.8599 14.53L76.1397 15.2415L76.8599 15.9529L86.868 25.8391L87.5707 26.5334L88.2735 25.8391L101.013 13.2546C101.316 14.017 101.534 14.7626 101.672 15.4919C101.89 16.6636 102 17.9068 102 19.2234C102 24.3642 100.226 28.6589 96.6704 32.1715C93.11 35.6886 88.7545 37.4467 83.5397 37.4467C82.4828 37.4467 81.4252 37.3597 80.3661 37.1854C79.3386 37.0162 78.3561 36.7207 77.4163 36.2987L76.7913 36.0181L76.3039 36.4995L14.456 97.5945ZM91.1848 97.5945L62.1664 68.9294L72.4196 58.801L101.438 87.4661L91.1848 97.5945Z" stroke="#7879F1" stroke-width="2"/>
</svg>
