<svg width="92" height="92" viewBox="0 0 92 92" fill="none" xmlns="http://www.w3.org/2000/svg">
<path d="M71.1266 80.8319C74.6289 81.6971 78.1551 82.2598 81.7048 82.5196L82.7778 82.5981V81.5222V70.2778V69.4597L81.9759 69.2976L69.9648 66.8698L69.4389 66.7635L69.0596 67.1429L60.4985 75.704L59.4609 76.7415L60.806 77.3278C64.1788 78.798 67.6192 79.9663 71.1266 80.8319ZM71.1266 80.8319L71.3664 79.8611M71.1266 80.8319C71.1267 80.8319 71.1268 80.832 71.1268 80.832L71.3664 79.8611M71.3664 79.8611C68.2575 79.0938 65.2011 78.0847 62.1972 76.8337L61.9127 77.1182L61.2056 76.4111L61.6051 75.4944C61.7254 75.5468 61.8457 75.5989 61.9662 75.6505L69.7667 67.85L81.7778 70.2778V80.5195C81.8021 80.5213 81.8264 80.5231 81.8508 80.5249L81.7778 81.5222H80.7778V81.4408C77.6225 81.1582 74.4854 80.6316 71.3664 79.8611ZM51.1111 11.2222H60.3333V24.5556H47V21.4444H56.2222H57.2222V20.4444V15.3333V14.3333H56.2222H47V1H60.3333V4.11111H51.1111H50.1111V5.11111V10.2222V11.2222H51.1111ZM80.7778 15.3333V24.5556H77.6667V1H91V14.3333H81.7778H80.7778V15.3333ZM80.7778 10.2222V11.2222H81.7778H86.8889H87.8889V10.2222V5.11111V4.11111H86.8889H81.7778H80.7778V5.11111V10.2222ZM54.9249 83.7451L54.9245 83.7449C44.5912 78.8971 35.4445 72.4897 27.4793 64.521L27.479 64.5208C19.5103 56.5555 13.1029 47.4088 8.2551 37.0755L8.25493 37.0751C3.41441 26.768 1 16.2014 1 5.36667C1 4.0807 1.41801 3.06287 2.24044 2.24044C3.06287 1.41801 4.0807 1 5.36667 1H26.0667C27.0246 1 27.8665 1.30105 28.6279 1.92396C29.372 2.5328 29.7975 3.28718 29.9323 4.23031L29.9352 4.25097L29.939 4.27148L33.2574 22.1395C33.411 23.2287 33.3863 24.185 33.2061 25.0204C33.0355 25.7998 32.6464 26.506 32.004 27.1484L32.0004 27.1521L19.6059 39.6743L19.0665 40.2193L19.4529 40.8816C23.0777 47.0956 27.627 52.914 33.0954 58.3376C38.5587 63.7596 44.5621 68.4512 51.1044 72.4111L51.775 72.817L52.3293 72.2627L64.3404 60.2515C64.972 59.62 65.823 59.1183 66.9345 58.7721C68.027 58.4342 69.0815 58.3436 70.1085 58.486L87.7016 62.0556C87.7033 62.0559 87.705 62.0563 87.7067 62.0567C88.6914 62.2687 89.4736 62.7324 90.0912 63.4516C90.7003 64.164 91 64.9767 91 65.9333V86.6333C91 87.9193 90.582 88.9371 89.7596 89.7596C88.9371 90.582 87.9193 91 86.6333 91C75.7986 91 65.232 88.5856 54.9249 83.7451ZM14.5444 31.0663L15.1307 32.4113L16.1682 31.3738L24.6016 22.9404L24.9716 22.5704L24.8785 22.0554L22.7063 10.0443L22.5576 9.22222H21.7222H10.35H9.22064L9.35735 10.3433C9.78728 13.8687 10.3892 17.3516 11.1633 20.7917C11.9444 24.2632 13.0719 27.6882 14.5444 31.0663ZM67.4444 24.5556V1H70.5556V24.5556H67.4444Z" stroke="#883399" stroke-width="2"/>
</svg>
