<svg width="118" height="84" viewBox="0 0 118 84" fill="none" xmlns="http://www.w3.org/2000/svg">
<path d="M59 82.5772L74.9084 66.4761C72.952 64.6682 70.7146 63.2179 68.1908 62.1243L59 82.5772ZM59 82.5772L43.0916 66.4761C45.0483 64.668 47.2859 63.2175 49.8101 62.1239C52.6259 60.9072 55.6853 60.2941 59 60.2941C62.3147 60.2941 65.3741 60.9072 68.1899 62.1239L59 82.5772ZM38.3217 34.828L38.3223 34.8278C44.7015 32.0434 51.5903 30.6471 59 30.6471C66.4078 30.6471 73.2967 32.0624 79.6781 34.8851C85.7679 37.5802 91.1037 41.1872 95.6929 45.7065L86.7706 54.6732C83.2406 51.2926 79.1949 48.6147 74.6392 46.6412C69.7554 44.5256 64.5389 43.4706 59 43.4706C53.4611 43.4706 48.2446 44.5256 43.3608 46.6412C38.8087 48.6131 34.7659 51.2883 31.2379 54.6651L22.3047 45.4736C26.8927 41.0316 32.2292 37.4829 38.3217 34.828ZM107.67 33.6696C101.433 27.5742 94.2523 22.7757 86.1326 19.2762L86.1322 19.2761C77.6822 15.639 68.6346 13.8235 59 13.8235C49.3654 13.8235 40.3178 15.639 31.8678 19.2761L31.8674 19.2762C23.7477 22.7757 16.5666 27.5742 10.3299 33.6696L1.40734 24.7025C8.69938 17.391 17.1695 11.6457 26.8245 7.46471C36.7708 3.15751 47.4923 1 59 1C70.5077 1 81.2292 3.15751 91.1755 7.46471C100.831 11.6457 109.301 17.391 116.593 24.7025L107.67 33.6696Z" stroke="#883399" stroke-width="2"/>
</svg>
