<svg width="105" height="84" viewBox="0 0 105 84" fill="none" xmlns="http://www.w3.org/2000/svg">
<path d="M3.79351 3.79471L3.79471 3.7935C5.66312 1.92191 7.88012 1 10.5 1H73.5C76.1199 1 78.339 1.92197 80.2111 3.79411C82.0794 5.66238 83 7.87957 83 10.5V34.125V36.5392L84.7071 34.8321L104 15.5392V68.4608L84.7071 49.1679L83 47.4608V49.875V73.5C83 76.1202 82.0796 78.3393 80.2111 80.2111C78.3393 82.0796 76.1202 83 73.5 83H10.5C7.87957 83 5.66239 82.0794 3.79411 80.2111C1.92197 78.339 1 76.1199 1 73.5V10.5C1 7.88012 1.92191 5.66312 3.79351 3.79471ZM9.5 73.5V74.5H10.5H73.5H74.5V73.5V10.5V9.5H73.5H10.5H9.5V10.5V73.5Z" stroke="#883399" stroke-width="2"/>
</svg>
