<svg width="87" height="99" viewBox="0 0 87 99" fill="none" xmlns="http://www.w3.org/2000/svg">
<path d="M11.5564 84.1799L11.5567 84.1803C18.3477 91.8127 26.8356 96.368 37.0624 97.8574V89.1049C29.2358 87.6123 22.7754 83.8549 17.7218 77.842C12.4957 71.6275 9.87488 64.4474 9.87488 56.3416C9.87488 51.6476 10.786 47.2176 12.6126 43.0618L11.5564 84.1799ZM11.5564 84.1799C4.51425 76.2728 0.999878 67.0088 0.999878 56.3416M11.5564 84.1799L0.999878 56.3416M13.5789 26.61C9.666 30.3941 6.62504 34.7784 4.45113 39.7685L13.5789 26.61ZM13.5789 26.61L19.8889 32.8369C16.7297 35.8043 14.3008 39.2134 12.6128 43.0615L13.5789 26.61ZM0.999878 56.3416C0.999878 50.5766 2.14967 45.0551 4.45104 39.7688L0.999878 56.3416ZM41.4608 1.40505L47.6496 7.51232L42.3897 12.703L40.655 14.4148H43.0921H43.4999C55.3882 14.4148 65.4196 18.475 73.6553 26.6021C81.8904 34.7288 85.9999 44.6217 85.9999 56.3416C85.9999 66.9171 82.4888 76.1387 75.4488 84.0511C68.6543 91.6802 60.1641 96.2758 49.9374 97.8481V89.0942C57.677 87.5183 64.1103 83.7444 69.202 77.7838C74.4785 71.6112 77.1249 64.4501 77.1249 56.3416C77.1249 47.132 73.8465 39.2737 67.3117 32.8249C60.7773 26.3766 52.8203 23.1465 43.4999 23.1465H43.0921H40.655L42.3897 24.8582L47.6496 30.0489L41.4608 36.1562L23.8533 18.7806L41.4608 1.40505Z" stroke="#883399" stroke-width="2"/>
</svg>
