<svg width="72" height="103" viewBox="0 0 72 103" fill="none" xmlns="http://www.w3.org/2000/svg">
<path d="M55.5714 87.55V102H16.4286V87.55V87.3142L16.3232 87.1033L1 56.4142V26.75H5.14286H6.14286V25.75V10.3C6.14286 7.73463 7.04416 5.5625 8.87445 3.72967C10.7009 1.90067 12.8675 1 15.4286 1H56.5714C59.1322 1 61.3007 1.90053 63.1307 3.72967C64.9573 5.56224 65.8571 7.73435 65.8571 10.3V25.75V26.75H66.8571H71V56.4142L55.6768 87.1033L55.5714 87.3142V87.55ZM14.4286 25.75V26.75H15.4286H25.7143H26.7143V25.75V16.45H29.8571V25.75V26.75H30.8571H41.1429H42.1429V25.75V16.45H45.2857V25.75V26.75H46.2857H56.5714H57.5714V25.75V10.3V9.3H56.5714H15.4286H14.4286V10.3V25.75ZM24.7143 92.7V93.7H25.7143H46.2857H47.2857V92.7V85.2108L62.609 54.5217L62.7143 54.3108V54.075V36.05V35.05H61.7143H10.2857H9.28571V36.05V54.075V54.3108L9.39104 54.5217L24.7143 85.2108V92.7Z" stroke="#7879F1" stroke-width="2"/>
</svg>
