<svg width="93" height="83" viewBox="0 0 93 83" fill="none" xmlns="http://www.w3.org/2000/svg">
<path d="M87.8333 56.0627H78.5V47.6877H87.8333C89.0446 47.6877 90.0118 48.0874 90.8035 48.8822C91.5995 49.6815 92 50.6566 92 51.8752C92 53.0939 91.5996 54.0665 90.8047 54.8618L90.8022 54.8643C90.0103 55.6622 89.0435 56.0627 87.8333 56.0627ZM87.8333 76.8127H78.5V68.4377H87.8333C89.0435 68.4377 90.0103 68.8383 90.8022 69.6362L90.8047 69.6387C91.5996 70.434 92 71.4066 92 72.6252C92 73.8439 91.5996 74.8165 90.8047 75.6118L90.8022 75.6143C90.0103 76.4122 89.0435 76.8127 87.8333 76.8127ZM47.5 72.6252V71.6252H46.5H37.1667V52.8752H46.5H47.5V51.8752C47.5 49.2884 48.4066 47.0983 50.2465 45.251C52.0825 43.4076 54.26 42.5002 56.8333 42.5002H71.3333V82.0002H56.8333C54.26 82.0002 52.0825 81.0929 50.2465 79.2495C48.4066 77.4022 47.5 75.2121 47.5 72.6252ZM20.6667 66.4377C15.252 66.4377 10.6409 64.5138 6.77936 60.6367C2.91774 56.7596 1 52.128 1 46.6877C1 41.2475 2.91774 36.6159 6.77936 32.7387C10.6409 28.8617 15.252 26.9377 20.6667 26.9377H28.4167C30.833 26.9377 32.9179 26.0761 34.6124 24.3711C36.3101 22.67 37.1667 20.5788 37.1667 18.1565C37.1667 15.7341 36.31 13.6429 34.6122 11.9417C32.9177 10.2369 30.8329 9.37524 28.4167 9.37524H10.3333C9.1226 9.37524 8.15339 8.97597 7.35802 8.18073C6.56577 7.38193 6.16667 6.40689 6.16667 5.18774C6.16667 3.9686 6.56577 2.99356 7.35802 2.19476C8.15339 1.39952 9.1226 1.00024 10.3333 1.00024H28.4167C33.1447 1.00024 37.1524 2.66637 40.4956 6.02311C43.839 9.38 45.5 13.4057 45.5 18.1565C45.5 22.9072 43.839 26.933 40.4956 30.2899C37.1524 33.6466 33.1447 35.3127 28.4167 35.3127H20.6667C17.5566 35.3127 14.8706 36.4354 12.6628 38.6521C10.452 40.8718 9.33333 43.5683 9.33333 46.6877C9.33333 49.8072 10.4521 52.5023 12.6634 54.7188C14.8708 56.9383 17.5566 58.0627 20.6667 58.0627H30V66.4377H20.6667Z" stroke="#883399" stroke-width="2"/>
</svg>
