<svg width="93" height="93" viewBox="0 0 93 93" fill="none" xmlns="http://www.w3.org/2000/svg">
<path d="M1 52.0809L36.1667 16.9142L56.1262 36.8738L56.8333 37.5809L57.5404 36.8738L92 2.41421V14.1816L56.8333 49.3483L36.8738 29.3887L36.1667 28.6816L35.4596 29.3887L1 63.8483V52.0809ZM1 92V83.0809L9.33333 74.7475V92H1ZM21.6667 92V62.4142L30 54.0809V92H21.6667ZM42.3333 92V54.1022L50.6667 62.5397V92H42.3333ZM63 92V62.5434L71.3333 54.21V92H63ZM83.6667 92V41.7475L92 33.4142V92H83.6667Z" stroke="#883399" stroke-width="2"/>
</svg>
