<svg width="97" height="99" viewBox="0 0 97 99" fill="none" xmlns="http://www.w3.org/2000/svg">
<path d="M63.4128 57.3159V37.4738H71.8149V57.3159V58.3159H72.8149H83.217C85.8094 58.3159 88.0051 59.228 89.8578 61.0804C91.7077 62.9367 92.6192 65.1376 92.6192 67.737V88.5791C92.6192 91.1784 91.7077 93.3793 89.8578 95.2357C88.0051 97.0881 85.8095 98.0001 83.217 98.0001H10.402C7.80918 98.0001 5.61325 97.0878 3.76035 95.2348C1.91108 93.3786 0.999878 91.178 0.999878 88.5791V67.737C0.999878 65.138 1.91108 62.9375 3.76035 61.0813C5.61326 59.2283 7.80918 58.3159 10.402 58.3159H62.4128H63.4128V57.3159ZM83.217 89.5791H84.217V88.5791V67.737V66.737H83.217H10.402H9.40202V67.737V88.5791V89.5791H10.402H83.217ZM36.0137 81.1627L36.0113 81.1602C35.21 80.3603 34.8069 79.3825 34.8069 78.158C34.8069 76.9335 35.21 75.9557 36.0113 75.1558L36.0137 75.1534C36.8121 74.3507 37.7873 73.9475 39.0079 73.9475C40.2286 73.9475 41.2062 74.3508 42.0085 75.1546C42.8068 75.9543 43.209 76.9324 43.209 78.158C43.209 79.3836 42.8068 80.3618 42.0085 81.1614C41.2062 81.9652 40.2286 82.3685 39.0079 82.3685C37.7873 82.3685 36.8121 81.9653 36.0137 81.1627ZM54.2175 81.1627L54.215 81.1602C53.4138 80.3603 53.0106 79.3825 53.0106 78.158C53.0106 76.9335 53.4138 75.9557 54.215 75.1558L54.2175 75.1534C55.0159 74.3507 55.991 73.9475 57.2117 73.9475C58.4324 73.9475 59.41 74.3508 60.2123 75.1546C61.0105 75.9543 61.4128 76.9324 61.4128 78.158C61.4128 79.3836 61.0105 80.3618 60.2123 81.1614C59.41 81.9652 58.4324 82.3685 57.2117 82.3685C55.991 82.3685 55.0159 81.9653 54.2175 81.1627ZM58.5342 31.1727L52.4261 25.0535C54.3951 23.3675 56.5568 22.0094 58.9134 20.9765C61.55 19.8209 64.4458 19.237 67.6138 19.237C70.7819 19.237 73.6777 19.8209 76.3143 20.9765C78.6708 22.0094 80.8326 23.3675 82.8016 25.0535L76.6935 31.1727C75.586 30.1952 74.3675 29.4001 73.0392 28.7911L73.0384 28.7908C71.3778 28.0311 69.5647 27.658 67.6138 27.658C65.6633 27.658 63.8519 28.031 62.1944 28.7908C60.8631 29.3998 59.6426 30.1949 58.5342 31.1727ZM23.8048 75.1546C24.603 75.9543 25.0052 76.9324 25.0052 78.158C25.0052 79.3836 24.603 80.3618 23.8048 81.1614C23.0025 81.9652 22.0249 82.3685 20.8042 82.3685C19.5835 82.3685 18.6059 81.9652 17.8036 81.1614C17.0053 80.3618 16.6031 79.3836 16.6031 78.158C16.6031 76.9324 17.0053 75.9543 17.8036 75.1546C18.6059 74.3508 19.5835 73.9475 20.8042 73.9475C22.0249 73.9475 23.0025 74.3508 23.8048 75.1546ZM45.5201 18.1349L39.6491 12.2532C43.2071 8.85443 47.2845 6.16218 51.8869 4.17476C56.7839 2.06018 62.0228 1.00012 67.6138 1.00012C73.2049 1.00012 78.4438 2.06018 83.3407 4.17476C87.9432 6.16218 92.0206 8.85443 95.5786 12.2532L89.7076 18.1349C86.9224 15.5101 83.7385 13.4358 80.1612 11.9139C76.261 10.2496 72.075 9.42118 67.6138 9.42118C63.1526 9.42118 58.9666 10.2496 55.0664 11.9139C51.4892 13.4358 48.3053 15.5101 45.5201 18.1349Z" stroke="#883399" stroke-width="2"/>
</svg>
