<svg width="86" height="109" viewBox="0 0 86 109" fill="none" xmlns="http://www.w3.org/2000/svg">
<path d="M39.8862 35.8794L39.8838 35.877C39.0476 35.0321 38.625 33.9961 38.625 32.7C38.625 31.4039 39.0477 30.3653 39.885 29.5163C40.7173 28.6724 41.7328 28.25 43 28.25C44.2668 28.25 45.2845 28.6722 46.1206 29.5166C46.9539 30.3651 47.375 31.4035 47.375 32.7C47.375 33.9972 46.9534 35.0336 46.1204 35.8782C45.2838 36.7265 44.2661 37.15 43 37.15C41.7339 37.15 40.7188 36.7266 39.8862 35.8794ZM12.9765 86.6829L12.9762 86.6826C4.98799 75.5441 1 63.1908 1 49.595V17.0396L43 1.06985L85 17.0396V49.595C85 63.191 81.0137 75.5443 73.029 86.6828C65.0988 97.7438 55.0935 104.819 43 107.967C30.9065 104.819 20.9031 97.7438 12.9765 86.6829ZM42.6937 98.5069L43 98.6055L43.3063 98.5069C52.8591 95.4335 60.738 89.2868 66.9404 80.1308C73.1456 70.9707 76.25 60.7832 76.25 49.595V23.8438V23.1541L75.6054 22.909L43.3554 10.6465L43 10.5114L42.6446 10.6465L10.3946 22.909L9.75 23.1541V23.8438V49.595C9.75 60.7832 12.8544 70.9707 19.0596 80.1308C25.262 89.2868 33.1409 95.4335 42.6937 98.5069ZM47.375 50.05V80.75H38.625V50.05H47.375Z" stroke="#7879F1" stroke-width="2"/>
</svg>
