<svg width="93" height="93" viewBox="0 0 93 93" fill="none" xmlns="http://www.w3.org/2000/svg">
<path d="M10.3303 3.47737L10.3494 3.45416L10.3671 3.42984C10.9581 2.61717 11.6859 2.01848 12.5583 1.61689C13.453 1.20854 14.4293 1 15.5 1H77.5C78.5707 1 79.5471 1.20857 80.4419 1.61699C81.3143 2.01858 82.042 2.61724 82.6329 3.42984L82.6506 3.45416L82.6697 3.47737L89.8836 12.237C90.5207 13.1167 91.0355 14.031 91.4311 14.9804C91.8037 15.8746 92 16.9036 92 18.0833V82.6667C92 85.241 91.0959 87.4208 89.2601 89.2601C87.4208 91.0959 85.241 92 82.6667 92H10.3333C7.75869 92 5.57868 91.0957 3.73934 89.2595C1.90393 87.4204 1 85.2407 1 82.6667V18.0833C1 16.9036 1.19634 15.8746 1.56891 14.9804C1.96448 14.0311 2.4793 13.1167 3.11636 12.2371L10.3303 3.47737ZM11.6381 14.8524L10.2376 16.5H12.4H80.6H82.7624L81.3619 14.8524L76.9703 9.68568L76.6708 9.33333H76.2083H16.7917H16.3292L16.0297 9.68569L11.6381 14.8524ZM10.3333 24.8333H9.33333V25.8333V82.6667V83.6667H10.3333H82.6667H83.6667V82.6667V25.8333V24.8333H82.6667H10.3333ZM40.6262 55.0929L33.0667 62.6525L27.2475 56.8333L46.5 37.5809L65.7524 56.8333L59.9333 62.6525L52.3738 55.0929L50.6667 53.3858V55.8V76.5H42.3333V55.8V53.3858L40.6262 55.0929Z" stroke="#883399" stroke-width="2"/>
</svg>
