<svg width="93" height="93" viewBox="0 0 93 93" fill="none" xmlns="http://www.w3.org/2000/svg">
<path d="M9.33333 82.6667V83.6667H10.3333H82.6667H83.6667V82.6667V35.2625V34.8483L83.3738 34.5554L58.4446 9.62623L58.1517 9.33333H57.7375H10.3333H9.33333V10.3333V82.6667ZM10.3333 92C7.75869 92 5.57868 91.0957 3.73934 89.2595C1.90395 87.4204 1 85.2407 1 82.6667V10.3333C1 7.75897 1.90413 5.57915 3.73994 3.73994C5.57915 1.90413 7.75897 1 10.3333 1H61.5858L92 31.4142V82.6667C92 85.241 91.0959 87.4208 89.2601 89.2601C87.4208 91.0959 85.241 92 82.6667 92H10.3333ZM71.3333 63V71.3333H21.6667V63H71.3333ZM71.3333 42.3333V50.6667H21.6667V42.3333H71.3333ZM55.8333 21.6667V30H21.6667V21.6667H55.8333Z" stroke="#883399" stroke-width="2"/>
</svg>
