<svg width="102" height="92" viewBox="0 0 102 92" fill="none" xmlns="http://www.w3.org/2000/svg">
<mask id="path-1-inside-1_207_318" fill="white">
<path d="M94.1155 28.4147C98.4629 28.4147 102 24.8937 102 20.5659V7.84881C102 3.52104 98.4629 0 94.1155 0H7.88454C3.53706 0 0 3.52104 0 7.84881V20.5659C0 24.8937 3.53706 28.4147 7.88454 28.4147H49.5029V31.7927H7.88454C3.53706 31.7927 0 35.3137 0 39.6415V52.3585C0 56.6863 3.53706 60.2073 7.88454 60.2073H49.5029V63.5853H7.88454C3.53706 63.5853 0 67.1064 0 71.4341V84.1512C0 88.479 3.53706 92 7.88454 92H94.1155C98.4629 92 102 88.479 102 84.1512V71.4341C102 67.1064 98.4629 63.5853 94.1155 63.5853H52.4971V60.2073H94.1155C98.4629 60.2073 102 56.6863 102 52.3585V39.6415C102 35.3137 98.4629 31.7927 94.1155 31.7927H52.4971V28.4147H94.1155ZM99.0059 71.4341V84.1512C99.0059 86.8357 96.812 89.0194 94.1155 89.0194H7.88454C5.18803 89.0194 2.99413 86.8357 2.99413 84.1512V71.4341C2.99413 68.7496 5.18803 66.5659 7.88454 66.5659H94.1155C96.812 66.5659 99.0059 68.7496 99.0059 71.4341ZM99.0059 39.6415V52.3585C99.0059 55.043 96.812 57.2268 94.1155 57.2268H7.88454C5.18803 57.2268 2.99413 55.043 2.99413 52.3585V39.6415C2.99413 36.957 5.18803 34.7732 7.88454 34.7732H94.1155C96.812 34.7732 99.0059 36.957 99.0059 39.6415ZM2.99413 20.5659V7.84881C2.99413 5.16432 5.18803 2.98056 7.88454 2.98056H94.1155C96.812 2.98056 99.0059 5.16432 99.0059 7.84881V20.5659C99.0059 23.2504 96.812 25.4341 94.1155 25.4341H7.88454C5.18803 25.4341 2.99413 23.2504 2.99413 20.5659Z"/>
<path d="M14.272 7.94816C10.805 7.94816 7.98434 10.7561 7.98434 14.2073C7.98434 17.6586 10.805 20.4665 14.272 20.4665C17.739 20.4665 20.5597 17.6586 20.5597 14.2073C20.5597 10.7561 17.739 7.94816 14.272 7.94816ZM14.272 17.486C12.456 17.486 10.9785 16.0152 10.9785 14.2073C10.9785 12.3995 12.456 10.9287 14.272 10.9287C16.0881 10.9287 17.5656 12.3995 17.5656 14.2073C17.5656 16.0152 16.0881 17.486 14.272 17.486Z"/>
<path d="M28.6438 9.5378C26.0573 9.5378 23.953 11.6325 23.953 14.2073C23.953 16.7822 26.0573 18.8769 28.6438 18.8769C31.2304 18.8769 33.3346 16.7822 33.3346 14.2073C33.3346 11.6325 31.2304 9.5378 28.6438 9.5378ZM28.6438 15.8963C27.7083 15.8963 26.9472 15.1387 26.9472 14.2073C26.9472 13.276 27.7083 12.5184 28.6438 12.5184C29.5794 12.5184 30.3405 13.276 30.3405 14.2073C30.3405 15.1387 29.5794 15.8963 28.6438 15.8963Z"/>
<path d="M14.272 39.7408C10.805 39.7408 7.98434 42.5487 7.98434 46C7.98434 49.4513 10.805 52.2592 14.272 52.2592C17.739 52.2592 20.5597 49.4513 20.5597 46C20.5597 42.5487 17.739 39.7408 14.272 39.7408ZM14.272 49.2786C12.456 49.2786 10.9785 47.8078 10.9785 46C10.9785 44.1922 12.456 42.7214 14.272 42.7214C16.0881 42.7214 17.5656 44.1922 17.5656 46C17.5656 47.8078 16.0881 49.2786 14.272 49.2786Z"/>
<path d="M28.6438 41.3305C26.0573 41.3305 23.953 43.4252 23.953 46C23.953 48.5748 26.0573 50.6695 28.6438 50.6695C31.2304 50.6695 33.3346 48.5748 33.3346 46C33.3346 43.4252 31.2304 41.3305 28.6438 41.3305ZM28.6438 47.689C27.7083 47.689 26.9472 46.9313 26.9472 46C26.9472 45.0687 27.7083 44.311 28.6438 44.311C29.5794 44.311 30.3405 45.0687 30.3405 46C30.3405 46.9313 29.5794 47.689 28.6438 47.689Z"/>
<path d="M90.9217 47.689H38.225C37.3983 47.689 36.728 48.356 36.728 49.1793C36.728 50.0025 37.3983 50.6695 38.225 50.6695H90.9217C91.7485 50.6695 92.4188 50.0025 92.4188 49.1793C92.4188 48.356 91.7485 47.689 90.9217 47.689Z"/>
<path d="M36.728 42.8207C36.728 43.644 37.3983 44.311 38.225 44.311H90.9217C91.7485 44.311 92.4188 43.644 92.4188 42.8207C92.4188 41.9975 91.7485 41.3305 90.9217 41.3305H38.225C37.3983 41.3305 36.728 41.9975 36.728 42.8207Z"/>
<path d="M92.4188 17.3866C92.4188 16.5634 91.7485 15.8963 90.9217 15.8963H38.225C37.3983 15.8963 36.728 16.5634 36.728 17.3866C36.728 18.2098 37.3983 18.8769 38.225 18.8769H90.9217C91.7485 18.8769 92.4188 18.2098 92.4188 17.3866Z"/>
<path d="M38.225 12.5184H90.9217C91.7485 12.5184 92.4188 11.8513 92.4188 11.0281C92.4188 10.2048 91.7485 9.5378 90.9217 9.5378H38.225C37.3983 9.5378 36.728 10.2048 36.728 11.0281C36.728 11.8513 37.3983 12.5184 38.225 12.5184Z"/>
<path d="M14.272 71.5335C10.805 71.5335 7.98434 74.3414 7.98434 77.7927C7.98434 81.2439 10.805 84.0518 14.272 84.0518C17.739 84.0518 20.5597 81.2439 20.5597 77.7927C20.5597 74.3414 17.739 71.5335 14.272 71.5335ZM14.272 81.0713C12.456 81.0713 10.9785 79.6005 10.9785 77.7927C10.9785 75.9848 12.456 74.514 14.272 74.514C16.0881 74.514 17.5656 75.9848 17.5656 77.7927C17.5656 79.6005 16.0881 81.0713 14.272 81.0713Z"/>
<path d="M28.6438 73.1231C26.0573 73.1231 23.953 75.2178 23.953 77.7927C23.953 80.3675 26.0573 82.4622 28.6438 82.4622C31.2304 82.4622 33.3346 80.3675 33.3346 77.7927C33.3346 75.2178 31.2304 73.1231 28.6438 73.1231ZM28.6438 79.4816C27.7083 79.4816 26.9472 78.724 26.9472 77.7927C26.9472 76.8613 27.7083 76.1037 28.6438 76.1037C29.5794 76.1037 30.3405 76.8613 30.3405 77.7927C30.3405 78.724 29.5794 79.4816 28.6438 79.4816Z"/>
<path d="M90.9217 79.4816H38.225C37.3983 79.4816 36.728 80.1487 36.728 80.9719C36.728 81.7952 37.3983 82.4622 38.225 82.4622H90.9217C91.7485 82.4622 92.4188 81.7952 92.4188 80.9719C92.4188 80.1487 91.7485 79.4816 90.9217 79.4816Z"/>
<path d="M36.728 74.6134C36.728 75.4366 37.3983 76.1037 38.225 76.1037H90.9217C91.7485 76.1037 92.4188 75.4366 92.4188 74.6134C92.4188 73.7902 91.7485 73.1231 90.9217 73.1231H38.225C37.3983 73.1231 36.728 73.7902 36.728 74.6134Z"/>
</mask>
<path d="M94.1155 28.4147C98.4629 28.4147 102 24.8937 102 20.5659V7.84881C102 3.52104 98.4629 0 94.1155 0H7.88454C3.53706 0 0 3.52104 0 7.84881V20.5659C0 24.8937 3.53706 28.4147 7.88454 28.4147H49.5029V31.7927H7.88454C3.53706 31.7927 0 35.3137 0 39.6415V52.3585C0 56.6863 3.53706 60.2073 7.88454 60.2073H49.5029V63.5853H7.88454C3.53706 63.5853 0 67.1064 0 71.4341V84.1512C0 88.479 3.53706 92 7.88454 92H94.1155C98.4629 92 102 88.479 102 84.1512V71.4341C102 67.1064 98.4629 63.5853 94.1155 63.5853H52.4971V60.2073H94.1155C98.4629 60.2073 102 56.6863 102 52.3585V39.6415C102 35.3137 98.4629 31.7927 94.1155 31.7927H52.4971V28.4147H94.1155ZM99.0059 71.4341V84.1512C99.0059 86.8357 96.812 89.0194 94.1155 89.0194H7.88454C5.18803 89.0194 2.99413 86.8357 2.99413 84.1512V71.4341C2.99413 68.7496 5.18803 66.5659 7.88454 66.5659H94.1155C96.812 66.5659 99.0059 68.7496 99.0059 71.4341ZM99.0059 39.6415V52.3585C99.0059 55.043 96.812 57.2268 94.1155 57.2268H7.88454C5.18803 57.2268 2.99413 55.043 2.99413 52.3585V39.6415C2.99413 36.957 5.18803 34.7732 7.88454 34.7732H94.1155C96.812 34.7732 99.0059 36.957 99.0059 39.6415ZM2.99413 20.5659V7.84881C2.99413 5.16432 5.18803 2.98056 7.88454 2.98056H94.1155C96.812 2.98056 99.0059 5.16432 99.0059 7.84881V20.5659C99.0059 23.2504 96.812 25.4341 94.1155 25.4341H7.88454C5.18803 25.4341 2.99413 23.2504 2.99413 20.5659Z" stroke="#883399" stroke-width="4" mask="url(#path-1-inside-1_207_318)"/>
<path d="M14.272 7.94816C10.805 7.94816 7.98434 10.7561 7.98434 14.2073C7.98434 17.6586 10.805 20.4665 14.272 20.4665C17.739 20.4665 20.5597 17.6586 20.5597 14.2073C20.5597 10.7561 17.739 7.94816 14.272 7.94816ZM14.272 17.486C12.456 17.486 10.9785 16.0152 10.9785 14.2073C10.9785 12.3995 12.456 10.9287 14.272 10.9287C16.0881 10.9287 17.5656 12.3995 17.5656 14.2073C17.5656 16.0152 16.0881 17.486 14.272 17.486Z" stroke="#883399" stroke-width="4" mask="url(#path-1-inside-1_207_318)"/>
<path d="M28.6438 9.5378C26.0573 9.5378 23.953 11.6325 23.953 14.2073C23.953 16.7822 26.0573 18.8769 28.6438 18.8769C31.2304 18.8769 33.3346 16.7822 33.3346 14.2073C33.3346 11.6325 31.2304 9.5378 28.6438 9.5378ZM28.6438 15.8963C27.7083 15.8963 26.9472 15.1387 26.9472 14.2073C26.9472 13.276 27.7083 12.5184 28.6438 12.5184C29.5794 12.5184 30.3405 13.276 30.3405 14.2073C30.3405 15.1387 29.5794 15.8963 28.6438 15.8963Z" stroke="#883399" stroke-width="4" mask="url(#path-1-inside-1_207_318)"/>
<path d="M14.272 39.7408C10.805 39.7408 7.98434 42.5487 7.98434 46C7.98434 49.4513 10.805 52.2592 14.272 52.2592C17.739 52.2592 20.5597 49.4513 20.5597 46C20.5597 42.5487 17.739 39.7408 14.272 39.7408ZM14.272 49.2786C12.456 49.2786 10.9785 47.8078 10.9785 46C10.9785 44.1922 12.456 42.7214 14.272 42.7214C16.0881 42.7214 17.5656 44.1922 17.5656 46C17.5656 47.8078 16.0881 49.2786 14.272 49.2786Z" stroke="#883399" stroke-width="4" mask="url(#path-1-inside-1_207_318)"/>
<path d="M28.6438 41.3305C26.0573 41.3305 23.953 43.4252 23.953 46C23.953 48.5748 26.0573 50.6695 28.6438 50.6695C31.2304 50.6695 33.3346 48.5748 33.3346 46C33.3346 43.4252 31.2304 41.3305 28.6438 41.3305ZM28.6438 47.689C27.7083 47.689 26.9472 46.9313 26.9472 46C26.9472 45.0687 27.7083 44.311 28.6438 44.311C29.5794 44.311 30.3405 45.0687 30.3405 46C30.3405 46.9313 29.5794 47.689 28.6438 47.689Z" stroke="#883399" stroke-width="4" mask="url(#path-1-inside-1_207_318)"/>
<path d="M90.9217 47.689H38.225C37.3983 47.689 36.728 48.356 36.728 49.1793C36.728 50.0025 37.3983 50.6695 38.225 50.6695H90.9217C91.7485 50.6695 92.4188 50.0025 92.4188 49.1793C92.4188 48.356 91.7485 47.689 90.9217 47.689Z" stroke="#883399" stroke-width="4" mask="url(#path-1-inside-1_207_318)"/>
<path d="M36.728 42.8207C36.728 43.644 37.3983 44.311 38.225 44.311H90.9217C91.7485 44.311 92.4188 43.644 92.4188 42.8207C92.4188 41.9975 91.7485 41.3305 90.9217 41.3305H38.225C37.3983 41.3305 36.728 41.9975 36.728 42.8207Z" stroke="#883399" stroke-width="4" mask="url(#path-1-inside-1_207_318)"/>
<path d="M92.4188 17.3866C92.4188 16.5634 91.7485 15.8963 90.9217 15.8963H38.225C37.3983 15.8963 36.728 16.5634 36.728 17.3866C36.728 18.2098 37.3983 18.8769 38.225 18.8769H90.9217C91.7485 18.8769 92.4188 18.2098 92.4188 17.3866Z" stroke="#883399" stroke-width="4" mask="url(#path-1-inside-1_207_318)"/>
<path d="M38.225 12.5184H90.9217C91.7485 12.5184 92.4188 11.8513 92.4188 11.0281C92.4188 10.2048 91.7485 9.5378 90.9217 9.5378H38.225C37.3983 9.5378 36.728 10.2048 36.728 11.0281C36.728 11.8513 37.3983 12.5184 38.225 12.5184Z" stroke="#883399" stroke-width="4" mask="url(#path-1-inside-1_207_318)"/>
<path d="M14.272 71.5335C10.805 71.5335 7.98434 74.3414 7.98434 77.7927C7.98434 81.2439 10.805 84.0518 14.272 84.0518C17.739 84.0518 20.5597 81.2439 20.5597 77.7927C20.5597 74.3414 17.739 71.5335 14.272 71.5335ZM14.272 81.0713C12.456 81.0713 10.9785 79.6005 10.9785 77.7927C10.9785 75.9848 12.456 74.514 14.272 74.514C16.0881 74.514 17.5656 75.9848 17.5656 77.7927C17.5656 79.6005 16.0881 81.0713 14.272 81.0713Z" stroke="#883399" stroke-width="4" mask="url(#path-1-inside-1_207_318)"/>
<path d="M28.6438 73.1231C26.0573 73.1231 23.953 75.2178 23.953 77.7927C23.953 80.3675 26.0573 82.4622 28.6438 82.4622C31.2304 82.4622 33.3346 80.3675 33.3346 77.7927C33.3346 75.2178 31.2304 73.1231 28.6438 73.1231ZM28.6438 79.4816C27.7083 79.4816 26.9472 78.724 26.9472 77.7927C26.9472 76.8613 27.7083 76.1037 28.6438 76.1037C29.5794 76.1037 30.3405 76.8613 30.3405 77.7927C30.3405 78.724 29.5794 79.4816 28.6438 79.4816Z" stroke="#883399" stroke-width="4" mask="url(#path-1-inside-1_207_318)"/>
<path d="M90.9217 79.4816H38.225C37.3983 79.4816 36.728 80.1487 36.728 80.9719C36.728 81.7952 37.3983 82.4622 38.225 82.4622H90.9217C91.7485 82.4622 92.4188 81.7952 92.4188 80.9719C92.4188 80.1487 91.7485 79.4816 90.9217 79.4816Z" stroke="#883399" stroke-width="4" mask="url(#path-1-inside-1_207_318)"/>
<path d="M36.728 74.6134C36.728 75.4366 37.3983 76.1037 38.225 76.1037H90.9217C91.7485 76.1037 92.4188 75.4366 92.4188 74.6134C92.4188 73.7902 91.7485 73.1231 90.9217 73.1231H38.225C37.3983 73.1231 36.728 73.7902 36.728 74.6134Z" stroke="#883399" stroke-width="4" mask="url(#path-1-inside-1_207_318)"/>
</svg>
