<svg width="93" height="96" viewBox="0 0 93 96" fill="none" xmlns="http://www.w3.org/2000/svg">
<path d="M53.6385 81.4376H71.2057V95H6.15755V81.4376H21.146H22.4947L22.1028 80.1471L8.95107 36.8317L8.83394 36.4459L8.48199 36.2493C6.32853 35.0459 4.53867 33.2746 3.11677 30.902L3.11625 30.9011C1.70119 28.5452 1 26.0424 1 23.3754C1 19.3129 2.40244 15.893 5.222 13.0571C8.04135 10.2214 11.4387 8.81301 15.4726 8.81301C18.6166 8.81301 21.3944 9.71939 23.8406 11.5314C26.3013 13.3603 28.0027 15.6808 28.9673 18.5106L29.1982 19.188H29.9138H46.4179H47.4179V18.188V13.0005C47.4179 11.7812 47.8179 10.806 48.6125 10.0069C49.4026 9.21221 50.3673 8.81301 51.5755 8.81301C52.1943 8.81301 52.8017 8.95007 53.4067 9.23562C53.9777 9.50669 54.4749 9.91586 54.8999 10.4858L55.5722 11.3874L56.389 10.6142L65.1568 2.31427L65.1678 2.30385L65.1785 2.29311C65.8129 1.65506 66.5581 1.2531 67.4362 1.07442C68.2812 0.906465 69.1084 1.02004 69.9513 1.44394L69.9653 1.45099L69.9795 1.45759L90.079 10.7881C90.902 11.2053 91.4241 11.7799 91.7134 12.5183C92.001 13.2639 91.9833 13.953 91.6742 14.6471C91.2651 15.4612 90.7179 15.9175 90.0325 16.1265L90.0304 16.1271C89.2758 16.3591 88.5608 16.3125 87.8377 15.9823C87.8372 15.9821 87.8367 15.9818 87.8363 15.9816L69.2719 7.42361L68.6591 7.14109L68.1678 7.60371L56.0475 19.0161L55.733 19.3123V19.7442V27.0067V27.4454L56.0559 27.7425L68.1762 38.8956L68.6666 39.3469L69.2719 39.0679L87.8363 30.5098C87.8368 30.5096 87.8373 30.5094 87.8379 30.5091C88.5406 30.1883 89.2656 30.1497 90.0682 30.4188C90.8485 30.6805 91.3569 31.1422 91.6667 31.8278L91.6743 31.8446L91.6826 31.8611C92.0814 32.6634 92.0872 33.3419 91.7957 33.987C91.4715 34.7044 90.9197 35.2786 90.0746 35.7056L69.9699 45.2977L69.9606 45.3022L69.9513 45.3069C69.1088 45.7306 68.2822 45.8425 67.4374 45.6715L67.435 45.671C66.5574 45.4956 65.8127 45.0956 65.1785 44.4577L65.1678 44.447L65.1568 44.4366L56.389 36.1366L55.6804 35.4658L54.9924 36.1578C54.5447 36.608 53.992 37.0334 53.3245 37.4292C52.731 37.7792 52.1524 37.9378 51.5755 37.9378C50.3684 37.9378 49.404 37.5377 48.6137 36.74L48.6112 36.7375C47.8179 35.9423 47.4179 34.9696 47.4179 33.7504V28.5629V27.5629H46.4179H29.9138H29.2194L28.9768 28.2135C28.73 28.8754 28.4651 29.4916 28.1828 30.0631C27.9127 30.6028 27.538 31.2 27.0491 31.8557L26.6685 32.3661L26.9699 32.9269L52.7577 80.911L53.0407 81.4376H53.6385ZM19.8579 27.7804L19.8604 27.7779C21.0424 26.5848 21.6302 25.0947 21.6302 23.3754C21.6302 21.6562 21.0424 20.166 19.8604 18.9729L19.8579 18.9705C18.6714 17.7812 17.187 17.188 15.4726 17.188C13.7582 17.188 12.2749 17.7813 11.0913 18.9717C9.90537 20.1645 9.3151 21.6551 9.3151 23.3754C9.3151 25.0958 9.90537 26.5863 11.0913 27.7791C12.2749 28.9696 13.7582 29.5629 15.4726 29.5629C17.187 29.5629 18.6714 28.9696 19.8579 27.7804ZM30.7623 80.7289L30.9781 81.4376H31.7189H41.7762H43.4444L42.6581 79.9663L20.4807 38.4665L20.1981 37.9378H19.5987H19.0829H17.7331L18.1263 39.2291L30.7623 80.7289Z" stroke="#883399" stroke-width="2"/>
</svg>
