<svg width="89" height="99" viewBox="0 0 89 99" fill="none" xmlns="http://www.w3.org/2000/svg">
<path d="M24.7221 65.3501H38.5554V98.0001H0.999878V65.3501H14.8332H15.8332V64.3501V45.5501H39.5554H40.5554V44.5501V34.6501V33.6501H39.5554H25.7221V1.00012H63.2777V33.6501H49.4443H48.4443V34.6501V44.5501V45.5501H49.4443H73.1665V64.3501V65.3501H74.1665H87.9999V98.0001H50.4443V65.3501H64.2777H65.2777V64.3501V54.4501V53.4501H64.2777H24.7221H23.7221V54.4501V64.3501V65.3501H24.7221ZM33.611 24.7501V25.7501H34.611H54.3888H55.3888V24.7501V9.90012V8.90012H54.3888H34.611H33.611V9.90012V24.7501ZM8.88877 89.1001V90.1001H9.88877H29.6665H30.6665V89.1001V74.2501V73.2501H29.6665H9.88877H8.88877V74.2501V89.1001ZM58.3332 89.1001V90.1001H59.3332H79.111H80.111V89.1001V74.2501V73.2501H79.111H59.3332H58.3332V74.2501V89.1001Z" stroke="#883399" stroke-width="2"/>
</svg>
