<svg width="146" height="70" viewBox="0 0 146 70" fill="none" xmlns="http://www.w3.org/2000/svg">
<path d="M9.69066 7.24269V12.1316H21.677V19.3744H9.69066V28.4882H0V0.0200195H23.3632V7.26281H9.69066V7.24269Z" fill="#883399"/>
<path d="M26.4513 0.0200195H36.1419V28.4882H26.4513V0.0200195Z" fill="#883399"/>
<path d="M69.1552 0.0200195V28.4882H61.1914L50.2615 15.5518V28.4882H40.8146V0.0200195H48.7784L59.7083 12.9564V0.0200195H69.1552Z" fill="#883399"/>
<path d="M73.8477 0.0200195H83.5383V28.4882H73.8477V0.0200195Z" fill="#883399"/>
<path d="M94.4685 7.44398H86.0578V0H112.59V7.44398H104.179V28.4682H94.4888V7.44398H94.4685Z" fill="#883399"/>
<path d="M133.232 23.5189H122.302L120.372 28.4882H110.519L123.094 0.0200195H132.622L145.198 28.4882H135.182L133.232 23.5189ZM130.57 16.598L127.787 9.43565L124.983 16.598H130.57Z" fill="#883399"/>
<path d="M26.9388 51.6113C26.9388 58.1902 21.8395 62.3548 13.8351 62.3548H9.69066V69.3561H0V40.8879H13.8351C21.8395 40.8879 26.9388 45.0324 26.9388 51.6113ZM17.1669 51.6113C17.1669 49.5391 15.887 48.2716 13.2256 48.2716H9.69066V54.951H13.2256C15.887 54.951 17.1669 53.6835 17.1669 51.6113Z" fill="#883399"/>
<path d="M42.4198 62.1938H39.7991V69.3561H30.1084V40.8879H43.9435C51.9479 40.8879 57.0472 45.0324 57.0472 51.6314C57.0472 55.7357 55.0766 58.834 51.6229 60.5843L57.6567 69.3763H47.3159L42.4198 62.1938ZM43.334 48.2716H39.7991V54.951H43.334C45.9954 54.951 47.2753 53.6835 47.2753 51.6113C47.2753 49.5391 45.9954 48.2716 43.334 48.2716Z" fill="#883399"/>
<path d="M59.5458 55.1121C59.5458 46.4811 66.4126 40.2241 75.7782 40.2241C85.1438 40.2241 92.0106 46.4811 92.0106 55.1121C92.0106 63.7431 85.1438 70 75.7782 70C66.4126 70 59.5458 63.7431 59.5458 55.1121ZM82.2183 55.1121C82.2183 50.6859 79.3335 47.99 75.7782 47.99C72.2229 47.99 69.3178 50.6859 69.3178 55.1121C69.3178 59.5382 72.2026 62.2342 75.7579 62.2342C79.3132 62.2342 82.2183 59.5382 82.2183 55.1121Z" fill="#883399"/>
<path d="M95.5254 40.8879H109.686C119.295 40.8879 125.918 46.2999 125.918 55.1321C125.918 63.9643 119.315 69.3763 109.686 69.3763H95.5254V40.8879ZM109.279 61.8719C113.342 61.8719 116.146 59.4778 116.146 55.112C116.146 50.7663 113.363 48.352 109.279 48.352H105.216V61.8518H109.279V61.8719Z" fill="#883399"/>
</svg>
